<svg xmlns="http://www.w3.org/2000/svg" viewBox="0 0 100 100">
  <defs>
    <linearGradient id="g" x1="0" x2="1" y1="0" y2="1">
      <stop offset="0%" stop-color="#7c3aed"/>
      <stop offset="100%" stop-color="#8b5cf6"/>
    </linearGradient>
  </defs>
  <rect width="100" height="100" rx="16" fill="url(#g)" />
  <g transform="translate(20,20) scale(0.6)" fill="#fff">
    <path d="M26.6 4.2c-6 0-10.8 4.8-10.8 10.8s4.8 10.8 10.8 10.8 10.8-4.8 10.8-10.8S32.6 4.2 26.6 4.2zm0 5.4c2.4 0 4.4 2 4.4 4.4s-2 4.4-4.4 4.4-4.4-2-4.4-4.4 2-4.4 4.4-4.4zM10 44.6c-.8 0-1.6.7-1.6 1.6v6.6c0 1 .8 1.6 1.6 1.6h33.2c.8 0 1.6-.7 1.6-1.6v-6.6c0-1-.8-1.6-1.6-1.6H10z" />
  </g>
</svg>
